<svg width="128" xmlns="http://www.w3.org/2000/svg" viewBox="0 0 128 128" height="128" xmlns:xlink="http://www.w3.org/1999/xlink">
<defs>
<linearGradient id="linearGradient3688-166-749">
<stop offset="0" style="stop-color:#181818"/>
<stop offset="1" style="stop-color:#181818;stop-opacity:0"/>
</linearGradient>
<linearGradient id="linearGradient3688-464-309">
<stop offset="0" style="stop-color:#181818"/>
<stop offset="1" style="stop-color:#181818;stop-opacity:0"/>
</linearGradient>
<linearGradient id="linearGradient4665">
<stop offset="0" style="stop-color:#3a5283"/>
<stop offset="1" style="stop-color:#082050"/>
</linearGradient>
<linearGradient gradientTransform="translate(-61 61)" xlink:href="#linearGradient4665" id="linearGradient4671" x1="12" x2="116" gradientUnits="userSpaceOnUse"/>
<linearGradient id="linearGradient3702-501-757">
<stop offset="0" style="stop-color:#181818;stop-opacity:0"/>
<stop offset=".5" style="stop-color:#181818"/>
<stop offset="1" style="stop-color:#181818;stop-opacity:0"/>
</linearGradient>
<linearGradient id="linearGradient3194" xlink:href="#linearGradient3702-501-757" y1="47.028" y2="39.999" x2="0" gradientUnits="userSpaceOnUse"/>
<radialGradient cx="4.993" cy="43.5" gradientTransform="matrix(2.00378 0 0 1.4 -20.01187 -104.4)" r="2.5" id="radialGradient3192" xlink:href="#linearGradient3688-464-309" gradientUnits="userSpaceOnUse"/>
<radialGradient cx="4.993" cy="43.5" gradientTransform="matrix(2.00378 0 0 1.4 27.98813 -17.4)" r="2.5" id="radialGradient3190" xlink:href="#linearGradient3688-166-749" gradientUnits="userSpaceOnUse"/>
</defs>
<g transform="matrix(2.95 0 0 1.22222 -6.8 65.55554)">
<g style="opacity:.4" transform="matrix(1.05263 0 0 1.28571 -1.26316 -13.42854)">
<rect width="5" x="38" y="40" height="7" style="fill:url(#radialGradient3190)"/>
<rect width="5" x="-10" y="-47" height="7" style="fill:url(#radialGradient3192)" transform="scale(-1)"/>
<rect width="28" x="10" y="40" height="7" style="fill:url(#linearGradient3194)"/>
</g>
</g>
<g transform="translate(0 64)">
<rect width="103" x="-48.5" y="12.5" rx="6" height="103" style="fill:url(#linearGradient4671);stroke:#294172;stroke-linejoin:round;stroke-linecap:round;color:#000" transform="matrix(0 1 1 0 0 0)"/>
</g>
<path style="fill:#3c6eb4;line-height:normal;color:#000" d="m 78.152418,25.467895 0,4.125 c -1.142306,0.217013 -2.253537,0.523711 -3.317188,0.928125 -1.06365,0.404414 -2.075513,0.90455 -3.042187,1.478125 -0.966675,0.573575 -1.88144,1.234881 -2.732813,1.959375 -0.851372,0.724494 -1.636943,1.514703 -2.354687,2.371875 -0.717745,0.857172 -1.376397,1.778391 -1.942188,2.75 -0.56579,0.971609 -1.048234,1.991571 -1.44375,3.059375 -0.395516,1.067804 -0.704017,2.188616 -0.910937,3.334375 -0.206921,1.145759 -0.309375,2.317966 -0.309375,3.523438 0,1.233083 0.110154,2.438683 0.326562,3.609375 0.216409,1.170691 0.532142,2.314438 0.945313,3.403125 0.413171,1.088686 0.922212,2.123869 1.5125,3.110937 0.590287,0.987068 1.263174,1.918532 2.010937,2.784375 0.747764,0.865843 1.572219,1.664064 2.457813,2.389063 0.885593,0.724999 1.83216,1.377639 2.835937,1.942187 1.003778,0.564548 2.060179,1.042085 3.1625,1.426563 1.102321,0.384477 2.256282,0.674575 3.4375,0.859375 l 0,4.05625 3.385938,0 c 1.379939,0 2.721378,-0.183436 4.039062,-0.4125 l 0,-3.901563 c 0.958216,-0.215319 1.884416,-0.493224 2.784375,-0.842187 l 1.976563,3.420312 c 2.334893,-0.940093 4.420174,-2.292284 6.325,-3.884375 l -1.99375,-3.471875 c 0.689342,-0.63976 1.332589,-1.330978 1.925,-2.0625 l 3.506247,2.010938 c 1.53562,-1.940147 2.78527,-4.090009 3.66094,-6.445313 l -3.66094,-2.114062 c 0.26842,-0.862978 0.46997,-1.754847 0.61875,-2.664063 l 4.24532,0 c 0.16231,-1.11386 0.34375,-2.229205 0.34375,-3.385937 0,-1.379939 -0.18309,-2.72138 -0.4125,-4.039063 l -4.36563,0 c -0.19167,-0.880628 -0.43425,-1.745649 -0.73906,-2.578125 l 3.78125,-2.182812 c -0.94063,-2.333067 -2.29226,-4.421271 -3.88438,-6.325001 l -3.729685,2.148438 c -0.599582,-0.671207 -1.239854,-1.306609 -1.925,-1.890625 l 2.13125,-3.695312 C 94.857403,28.724583 92.714861,27.479429 90.355543,26.60227 l -2.13125,3.695313 c -0.860074,-0.292525 -1.73811,-0.532044 -2.646875,-0.704688 l 0,-4.19375 c -1.119459,-0.163924 -2.240585,-0.34375 -3.403125,-0.34375 -1.374126,0 -2.709779,0.184979 -4.021875,0.4125 z m 4.021875,10.707813 c 7.043283,0 12.65,5.606725 12.65,12.65 0,7.043289 -5.606722,12.65 -12.65,12.65 l -12.65,0 0,-12.65 c 0,-7.043275 5.606716,-12.65 12.65,-12.65 z"/>
<path style="fill:none;stroke:#3c6eb4;stroke-width:11.116" d="m 45.765343,67.02727 c 0,0 18.207387,0 18.207387,0 0,0 0,18.207398 0,18.207398 0,10.050475 -8.156907,18.207372 -18.207387,18.207372 -10.05048,0 -18.207392,-8.156897 -18.207392,-18.207372 0,-10.050485 8.156912,-18.207398 18.207392,-18.207398 z"/>
<g style="fill:#fff" transform="matrix(.55 0 0 .55 -31.45227 -6.39773)">
<path d="m 183.62707,123.42 0,43.13806 c 0,23.87372 -19.35649,43.23062 -43.23106,43.23062 -3.62212,0 -6.1971,-0.40892 -9.55001,-1.28535 -4.88901,-1.27944 -8.88447,-5.28797 -8.88613,-9.95047 0,-5.63569 4.09083,-9.73512 10.2059,-9.73512 2.91044,0 3.96651,0.55882 8.23024,0.55882 12.58698,0 22.79685,-10.19545 22.81893,-22.78243 l 0,-19.82781 c 0,-1.77666 -1.44376,-3.21618 -3.22339,-3.21618 l -14.99041,-0.003 c -5.58519,0 -10.09777,-4.45482 -10.09777,-10.05531 -0.003,-5.63531 4.55887,-10.07186 10.20437,-10.07186"/>
<path d="m 163.37293,143.57999 0,-43.13805 c 0,-23.873726 19.35649,-43.230621 43.23106,-43.230621 3.62212,0 6.1971,0.408923 9.55001,1.285354 4.88901,1.279434 8.88446,5.28796 8.88612,9.95046 0,5.6357 -4.09083,9.735127 -10.2059,9.735127 -2.91043,0 -3.9665,-0.55882 -8.23023,-0.55882 -12.58698,0 -22.79685,10.195451 -22.81893,22.78243 l 0,19.82781 c 0,1.77666 1.44376,3.21618 3.22339,3.21618 l 14.99041,0.003 c 5.58519,0 10.09777,4.45482 10.09777,10.05532 0.003,5.63531 -4.55887,10.07186 -10.20437,10.07186"/>
</g>
</svg>
