<?xml version="1.0" encoding="UTF-8" standalone="no"?>
<svg
   xmlns:dc="http://purl.org/dc/elements/1.1/"
   xmlns:cc="http://creativecommons.org/ns#"
   xmlns:rdf="http://www.w3.org/1999/02/22-rdf-syntax-ns#"
   xmlns:svg="http://www.w3.org/2000/svg"
   xmlns="http://www.w3.org/2000/svg"
   width="16"
   height="16.000019"
   version="1.1"
   id="svg7384">
  <metadata
     id="metadata90">
    <rdf:RDF>
      <cc:Work
         rdf:about="">
        <dc:format>image/svg+xml</dc:format>
        <dc:type
           rdf:resource="http://purl.org/dc/dcmitype/StillImage" />
        <dc:title>Fedy (symbolic)</dc:title>
      </cc:Work>
    </rdf:RDF>
  </metadata>
  <defs
     id="defs7386" />
  <path
     d="M 4,7 C 3,7 3,7 3,8 3,9 3,9 4,9 L 6.1308594,9 A 4,4 0 0 1 6,8 4,4 0 0 1 6.1328125,7 L 4,7 Z"
     id="rect3373"
     style="fill:#bebebe;fill-opacity:1" />
  <path
     d="M 0,2.0000191 0,14.000019 c 0,1 1,2 2,2 l 12,0 c 1,0 2,-1 2,-2 L 16,2.0000191 c 0,-1 -1,-2.00000003 -2,-2.00000003 l -12,0 c -1,0 -2,1.00000003 -2,2.00000003 z m 2,2 c 0,-2 0,-2 2,-2.0000191 l 8,0 c 2,1.91e-5 2,1.91e-5 2,2.0000191 l 0,7.9374999 c 0,2.0625 0,2.0625 -2,2.0625 l -8,0 c -2,0 -2,0 -2,-1.90625 z"
     id="rect4175"
     style="fill:#bebebe;fill-opacity:1" />
  <path
     id="path4183"
     d="m 13,8.00002 a 3,3 0 0 1 -3,3 3,3 0 0 1 -3,-3 3,3 0 0 1 3,-3 3,3 0 0 1 3,3 z"
     style="fill:#bebebe;fill-opacity:1" />
</svg>
