<?xml version="1.0" encoding="UTF-8" standalone="no"?>
<svg
   xmlns:dc="http://purl.org/dc/elements/1.1/"
   xmlns:cc="http://creativecommons.org/ns#"
   xmlns:rdf="http://www.w3.org/1999/02/22-rdf-syntax-ns#"
   xmlns:svg="http://www.w3.org/2000/svg"
   xmlns="http://www.w3.org/2000/svg"
   xmlns:xlink="http://www.w3.org/1999/xlink"
   version="1.1"
   id="svg2"
   height="48"
   viewBox="0 0 48 48"
   width="48">
  <metadata
     id="metadata54">
    <rdf:RDF>
      <cc:Work
         rdf:about="">
        <dc:format>image/svg+xml</dc:format>
        <dc:type
           rdf:resource="http://purl.org/dc/dcmitype/StillImage" />
        <dc:title>Fedy</dc:title>
      </cc:Work>
    </rdf:RDF>
  </metadata>
  <defs
     id="defs4">
    <linearGradient
       x2="0"
       gradientUnits="userSpaceOnUse"
       y2="226.25"
       y1="221.062"
       id="linearGradient3903"
       xlink:href="#linearGradient3303"
       gradientTransform="matrix(.95758 0 0 -1 -290.20455 264.24999)" />
    <linearGradient
       x2="36"
       gradientUnits="userSpaceOnUse"
       x1="12"
       id="linearGradient3908"
       xlink:href="#linearGradient3850"
       gradientTransform="matrix(.5 0 0 2 12 -25)" />
    <linearGradient
       gradientUnits="userSpaceOnUse"
       x2="10.548"
       y2="30"
       x1="10.5"
       y1="24"
       id="linearGradient3921"
       xlink:href="#linearGradient3915" />
    <linearGradient
       id="linearGradient3303">
      <stop
         id="stop10"
         style="stop-opacity:.1"
         offset="0" />
      <stop
         id="stop12"
         style="stop-opacity:0"
         offset="1" />
    </linearGradient>
    <linearGradient
       id="linearGradient3915">
      <stop
         id="stop15"
         style="stop-color:#ccc"
         offset="0" />
      <stop
         id="stop17"
         style="stop-color:#fff"
         offset="1" />
    </linearGradient>
    <linearGradient
       id="linearGradient5644">
      <stop
         id="stop20"
         style="stop-color:#ccc"
         offset="0" />
      <stop
         id="stop22"
         style="stop-color:#fff"
         offset="1" />
    </linearGradient>
    <linearGradient
       x2="0"
       gradientUnits="userSpaceOnUse"
       y2="224.438"
       y1="236.125"
       id="linearGradient3898"
       xlink:href="#linearGradient5644"
       gradientTransform="matrix(1.4268595,0,0,1.4269792,-483.94084,-304.64379)" />
    <linearGradient
       id="linearGradient3850">
      <stop
         id="stop26"
         style="stop-color:#028ccc"
         offset="0" />
      <stop
         id="stop28"
         style="stop-color:#03a9f4"
         offset="1" />
    </linearGradient>
    <radialGradient
       gradientUnits="userSpaceOnUse"
       r="10.625"
       id="radialGradient3913"
       xlink:href="#radialGradient4760"
       gradientTransform="matrix(-2.25882 0 0 .32941 165.45886 42.97647)"
       cy="4.625"
       cx="62.625" />
    <radialGradient
       gradientUnits="userSpaceOnUse"
       r="10.625"
       id="radialGradient4760"
       gradientTransform="matrix(5.77506 0 0 2.00858 -297.66314 30.79602)"
       cy="4.625"
       cx="62.625">
      <stop
         id="stop32"
         style="stop-opacity:.15"
         offset="0" />
      <stop
         id="stop34"
         style="stop-opacity:0"
         offset="1" />
    </radialGradient>
    <filter
       height="1.288"
       y="-0.144"
       width="1.288"
       x="-0.144"
       id="filter4204"
       style="color-interpolation-filters:sRGB">
      <feGaussianBlur
         id="feGaussianBlur4206"
         stdDeviation="0.96" />
    </filter>
  </defs>
  <path
     id="path36"
     d="M 0,44.5 C 0,46.432994 10.745163,48 24,48 37.254838,48 48,46.432994 48,44.5 48,42.567006 37.254838,41 24,41 10.745163,41 0,42.567006 0,44.5 z"
     style="fill:url(#radialGradient3913);fill-rule:evenodd" />
  <rect
     id="rect38"
     transform="scale(-1 1)"
     style="fill:#ccc"
     height="40"
     rx="1.939"
     y="4"
     x="-44"
     width="40" />
  <rect
     id="rect40"
     transform="matrix(0 -1 1 0 0 0)"
     style="fill:#eee"
     ry="1.915"
     height="39.5"
     rx="1.891"
     y="4.25"
     x="-43"
     width="39" />
  <g
     id="g42"
     style="fill-rule:evenodd">
    <rect
       id="rect44"
       transform="matrix(0 1 1 0 0 0)"
       style="fill:url(#linearGradient3908)"
       height="24"
       rx="2.059"
       y="11"
       x="18"
       width="12" />
    <path
       id="path46"
       d="m 33.28125,17.5 c 1.235743,0 2.21875,0.983007 2.21875,2.21875 l 0,8.5625 C 35.5,29.516993 34.516993,30.5 33.28125,30.5 l -20.5625,0 C 11.483007,30.5 10.5,29.516993 10.5,28.28125 l 0,-8.5625 C 10.5,18.483007 11.483007,17.5 12.71875,17.5 l 20.5625,0 z M 32.9375,18 13.0625,18 C 11.921814,18 11,18.921814 11,20.0625 l 0,7.875 C 11,29.078186 11.921814,30 13.0625,30 l 19.875,0 C 34.078186,30 35,29.078186 35,27.9375 l 0,-7.875 C 35,18.921814 34.078186,18 32.9375,18 z"
       style="fill:url(#linearGradient3921)" />
  </g>
  <circle
     r="8"
     cx="-31"
     cy="24"
     style="fill:#000000;fill-opacity:1;stroke:none;stroke-width:1.5;stroke-linecap:round;stroke-opacity:1;opacity:0.16;filter:url(#filter4204)"
     transform="scale(-1,1)"
     id="ellipse4182" />
  <ellipse
     id="ellipse48"
     transform="scale(-1,1)"
     style="fill:#eeeeee;stroke:url(#linearGradient3898);stroke-width:2;stroke-linecap:round;stroke-miterlimit:4;stroke-dasharray:none"
     ry="6.9999952"
     rx="6.9999948"
     cy="24"
     cx="-30.999992" />
  <path
     id="path50"
     d="M 6.1651513,43 C 5.1041575,43 4.25,42.108 4.25,41 l 0,-5 c 0,1.108 0.8541575,2 1.9151513,2 L 41.834849,38 C 42.895842,38 43.75,37.108 43.75,36 l 0,5 c 0,1.108 -0.854158,2 -1.915151,2 L 6.1651513,43 z"
     style="fill:url(#linearGradient3903)" />
</svg>
